<svg version="1.2" xmlns="http://www.w3.org/2000/svg" viewBox="0 0 565 565" width="565" height="565">
	<title>compact-disc-svg</title>
	<style>
		.s0 { fill: #ffffff } 
		.s1 { fill: #000000 } 
	</style>
	<path id="Forme 1" class="s0" d="m281.5 561c-154.6 0-279.5-124.9-279.5-279.5 0-154.6 124.9-279.5 279.5-279.5 154.6 0 279.5 124.9 279.5 279.5 0 154.6-124.9 279.5-279.5 279.5z"/>
	<path id="Layer" fill-rule="evenodd" class="s1" d="m282 530c-137.1 0-248-110.9-248-248 0-137.1 110.9-248 248-248 137.1 0 248 110.9 248 248 0 137.1-110.9 248-248 248zm0-408v-32c-105.9 0-192 86.1-192 192h32c0-88.2 71.8-160 160-160zm96 160c0-53.1-42.9-96-96-96-53.1 0-96 42.9-96 96 0 53.1 42.9 96 96 96 53.1 0 96-42.9 96-96zm-96 32c-17.7 0-32-14.3-32-32 0-17.7 14.3-32 32-32 17.7 0 32 14.3 32 32 0 17.7-14.3 32-32 32z"/>
</svg>