<?xml version="1.0" standalone="no"?>
<!DOCTYPE svg PUBLIC "-//W3C//DTD SVG 20010904//EN"
 "http://www.w3.org/TR/2001/REC-SVG-20010904/DTD/svg10.dtd">
<svg version="1.0" xmlns="http://www.w3.org/2000/svg"
 width="700.000000pt" height="700.000000pt" viewBox="0 0 700.000000 700.000000"
 preserveAspectRatio="xMidYMid meet">
<metadata>
Created by potrace 1.14, written by Peter Selinger 2001-2017
</metadata>
<g transform="translate(0.000000,700.000000) scale(0.100000,-0.100000)"
fill="#000000" stroke="none">
<path d="M3246 6569 c-214 -18 -444 -62 -654 -125 -349 -106 -716 -300 -1012
-534 -124 -98 -388 -359 -484 -480 -231 -289 -435 -675 -540 -1022 -162 -536
-178 -1097 -45 -1639 255 -1044 1058 -1891 2089 -2202 441 -133 908 -166 1366
-96 636 97 1231 397 1689 854 254 253 433 502 590 820 109 219 171 387 226
603 137 547 125 1115 -38 1652 -235 780 -781 1442 -1506 1825 -506 268 -1110
391 -1681 344z m244 -883 l0 -193 -102 -8 c-377 -26 -701 -135 -999 -336 -518
-348 -829 -895 -874 -1536 l-8 -103 -195 0 -195 0 6 143 c23 554 276 1117 687
1527 278 279 578 465 945 585 216 72 437 111 633 114 l102 1 0 -194z m244
-1018 c356 -69 658 -303 823 -633 198 -396 155 -883 -108 -1235 -513 -685
-1551 -628 -1984 110 -214 365 -210 845 8 1204 267 441 754 654 1261 554z"/>
<path d="M3385 3887 c-117 -39 -198 -110 -248 -215 -29 -61 -32 -75 -32 -167
0 -88 3 -107 27 -158 34 -72 65 -111 130 -160 105 -78 252 -96 383 -47 84 32
183 131 215 215 49 131 31 278 -47 383 -81 107 -172 154 -303 159 -52 2 -101
-2 -125 -10z"/>
</g>
</svg>
