<?xml version="1.0" standalone="no"?>
<!DOCTYPE svg PUBLIC "-//W3C//DTD SVG 20010904//EN"
 "http://www.w3.org/TR/2001/REC-SVG-20010904/DTD/svg10.dtd">
<svg version="1.0" xmlns="http://www.w3.org/2000/svg"
 width="1024.000000pt" height="1024.000000pt" viewBox="0 0 1024.000000 1024.000000"
 preserveAspectRatio="xMidYMid meet">
<metadata>
Created by potrace 1.14, written by Peter Selinger 2001-2017
</metadata>
<g transform="translate(0.000000,1024.000000) scale(0.100000,-0.100000)"
fill="#000000" stroke="none">
<path d="M4997 10083 c-4 -3 -49 -8 -100 -9 -91 -3 -222 -11 -222 -14 0 -1
-20 -3 -45 -5 -64 -4 -217 -23 -255 -32 -11 -2 -33 -6 -50 -7 -16 -2 -57 -9
-90 -15 -33 -6 -73 -14 -90 -17 -16 -3 -46 -9 -65 -14 -19 -5 -46 -11 -60 -14
-14 -2 -63 -14 -110 -26 -47 -12 -94 -23 -105 -26 -11 -2 -92 -27 -180 -55
-88 -28 -164 -52 -170 -52 -5 -1 -12 -4 -15 -7 -3 -3 -36 -16 -75 -29 -38 -14
-73 -29 -77 -35 -4 -6 -8 -8 -8 -4 0 8 -43 -10 -210 -85 -41 -18 -90 -40 -107
-48 -18 -7 -33 -17 -33 -21 0 -5 -6 -8 -14 -8 -7 0 -42 -16 -77 -35 -35 -19
-75 -40 -89 -47 -14 -7 -27 -15 -30 -18 -3 -3 -21 -12 -40 -21 -36 -17 -256
-150 -276 -167 -6 -5 -37 -27 -70 -48 -32 -21 -71 -48 -85 -59 -15 -11 -39
-29 -55 -40 -34 -24 -164 -124 -181 -139 -7 -6 -27 -22 -44 -36 -18 -14 -42
-34 -55 -45 -13 -11 -49 -42 -81 -70 -77 -66 -378 -368 -426 -427 -22 -25 -54
-64 -74 -85 -19 -21 -55 -65 -81 -98 -25 -33 -51 -65 -57 -71 -5 -6 -17 -22
-25 -34 -8 -13 -23 -32 -32 -42 -10 -10 -18 -21 -18 -25 0 -4 -9 -16 -19 -27
-31 -34 -263 -388 -266 -406 0 -3 -20 -38 -43 -78 -63 -107 -172 -329 -235
-477 -61 -145 -69 -166 -73 -180 -1 -5 -10 -28 -19 -49 -9 -22 -18 -47 -20
-55 -2 -9 -15 -46 -29 -83 -14 -38 -23 -68 -19 -68 3 0 0 -7 -7 -15 -6 -8 -9
-19 -5 -25 3 -5 2 -10 -3 -10 -6 0 -13 -17 -18 -37 -4 -21 -8 -40 -9 -43 -15
-50 -28 -98 -30 -110 -2 -8 -4 -15 -5 -15 -1 0 -4 -11 -6 -25 -3 -14 -10 -43
-16 -65 -6 -22 -12 -49 -14 -60 -2 -11 -5 -29 -8 -40 -14 -59 -36 -170 -41
-203 -3 -20 -7 -48 -9 -62 -12 -60 -26 -160 -31 -215 -3 -33 -7 -69 -10 -80
-26 -123 -26 -815 0 -1000 3 -22 7 -60 9 -85 2 -25 7 -61 10 -80 3 -19 8 -51
11 -70 2 -19 7 -48 10 -65 3 -16 7 -46 9 -65 3 -19 5 -35 6 -35 2 0 8 -30 15
-70 12 -79 20 -114 28 -135 3 -8 13 -46 21 -85 9 -38 18 -77 20 -85 3 -8 11
-40 20 -70 29 -109 52 -181 72 -235 4 -11 8 -24 10 -30 4 -14 26 -76 35 -100
4 -11 24 -63 45 -115 37 -95 64 -160 90 -214 8 -16 14 -35 14 -43 0 -7 4 -13
8 -13 5 0 15 -18 22 -40 7 -22 18 -40 23 -40 6 0 8 -3 4 -6 -5 -5 32 -81 101
-204 14 -25 34 -63 46 -85 12 -22 23 -42 26 -45 3 -3 29 -45 59 -95 29 -49 62
-99 72 -110 10 -11 18 -23 18 -28 0 -8 24 -43 59 -87 12 -15 22 -32 22 -38 0
-6 3 -12 8 -14 4 -1 40 -48 81 -103 41 -55 81 -106 88 -113 7 -8 26 -30 41
-50 15 -21 30 -39 33 -42 3 -3 34 -39 70 -80 35 -41 131 -143 214 -225 140
-140 189 -186 312 -292 74 -64 89 -76 119 -98 15 -11 33 -26 40 -33 7 -6 15
-12 19 -12 3 0 20 -13 38 -30 18 -16 38 -30 45 -30 6 0 12 -3 12 -7 0 -5 24
-24 53 -43 28 -19 54 -38 57 -41 12 -14 292 -190 365 -229 44 -24 82 -47 83
-52 2 -4 12 -8 23 -8 10 0 19 -5 19 -12 0 -6 3 -9 6 -5 3 3 24 -5 45 -19 21
-13 45 -24 53 -24 8 0 16 -4 18 -8 3 -9 151 -78 268 -127 36 -15 77 -34 93
-42 15 -8 27 -11 27 -8 0 3 10 0 23 -7 12 -7 24 -13 27 -14 13 -3 47 -16 62
-25 10 -5 26 -9 36 -9 10 0 22 -3 26 -8 4 -4 11 -7 14 -8 4 0 14 -4 22 -7 77
-33 474 -140 642 -172 46 -9 92 -18 104 -21 11 -2 36 -6 55 -8 19 -3 34 -5 34
-6 0 -1 16 -3 35 -5 19 -3 55 -7 80 -11 100 -15 225 -27 302 -28 32 -1 58 -3
58 -6 0 -3 44 -5 98 -5 53 1 103 -3 110 -8 7 -6 12 -6 12 0 0 8 37 10 48 3 7
-5 71 -3 85 3 9 3 19 2 22 -4 4 -5 11 -6 18 -2 6 3 63 8 126 9 101 3 206 10
206 14 0 1 25 3 55 5 30 2 82 6 115 10 33 4 71 9 85 10 14 2 25 4 25 5 0 1 14
3 30 5 17 1 32 4 35 5 3 1 8 2 13 1 4 -1 26 3 50 8 23 5 58 12 77 15 29 4 147
29 200 41 117 28 160 39 236 61 49 14 96 27 104 29 8 2 35 11 59 19 24 9 47
14 51 11 5 -3 10 -1 12 3 1 5 44 23 93 40 50 16 104 36 120 43 17 7 32 13 35
14 25 8 48 18 62 26 10 5 25 9 33 9 8 0 15 5 15 11 0 5 4 8 8 5 5 -3 23 4 40
15 18 10 37 19 42 19 15 0 244 114 252 125 4 6 8 7 8 3 0 -4 23 6 50 22 28 17
53 30 56 30 2 0 49 27 104 60 55 33 104 60 110 60 5 0 10 4 10 8 0 5 11 14 25
20 14 7 31 17 38 22 7 6 43 31 82 56 38 25 78 52 87 61 10 9 18 12 18 7 0 -5
4 -4 8 1 9 13 140 115 147 115 4 0 33 23 69 55 6 6 34 28 61 49 28 22 60 49
72 60 12 12 41 37 63 56 68 56 381 369 440 439 30 36 65 76 77 90 157 182 349
454 493 701 93 160 250 473 250 498 0 6 5 12 12 12 6 0 9 3 5 6 -3 4 1 21 10
38 9 17 18 36 19 41 1 6 28 75 58 155 31 80 58 152 60 160 2 8 6 24 10 35 23
60 27 72 30 91 2 11 12 45 21 75 9 30 18 64 20 76 2 12 6 27 10 33 3 5 8 20
11 33 8 46 12 64 29 126 9 35 18 76 20 90 2 14 6 36 9 47 2 12 7 37 10 55 3
19 8 45 11 59 2 13 7 40 10 60 3 20 7 45 9 56 2 12 7 45 10 75 4 30 9 70 11
89 6 45 13 112 22 225 10 116 10 614 0 725 -14 158 -18 195 -27 254 -5 32 -9
61 -8 65 4 16 -75 436 -82 436 -1 0 -3 11 -5 25 -2 14 -8 43 -14 65 -7 22 -14
48 -16 59 -2 10 -12 44 -21 75 -10 31 -18 62 -20 69 -12 64 -145 428 -201 552
-28 61 -46 102 -48 110 -2 12 -146 290 -179 348 -20 35 -36 68 -36 73 0 5 -4
9 -10 9 -5 0 -10 7 -10 15 0 8 -4 15 -8 15 -5 0 -14 16 -22 35 -8 19 -17 35
-21 35 -3 0 -12 14 -19 30 -7 17 -15 30 -19 30 -3 0 -12 13 -19 28 -6 16 -20
37 -30 48 -10 10 -21 26 -24 34 -3 8 -49 73 -102 144 -53 71 -96 133 -96 138
0 5 -4 6 -10 3 -5 -3 -10 -1 -10 4 0 10 -18 35 -50 70 -8 9 -33 39 -55 66 -84
103 -371 400 -475 490 -30 26 -121 103 -185 158 -46 38 -215 167 -220 167 -3
0 -11 5 -18 10 -48 40 -66 54 -99 72 -21 12 -38 25 -38 30 0 4 -4 8 -10 8 -9
0 -72 39 -97 60 -7 5 -15 10 -18 10 -4 0 -25 13 -48 28 -23 16 -49 32 -57 35
-8 4 -28 15 -45 25 -16 10 -57 33 -90 51 -33 18 -66 38 -72 43 -7 6 -13 7 -13
2 0 -5 -4 -4 -8 2 -4 6 -38 26 -77 44 -99 46 -236 110 -260 120 -11 4 -36 15
-55 23 -46 20 -92 39 -105 43 -5 2 -41 15 -80 29 -202 74 -526 170 -600 178
-17 2 -36 6 -42 10 -5 4 -25 8 -44 11 -19 2 -45 7 -59 10 -14 3 -37 8 -53 10
-15 3 -35 7 -45 10 -15 4 -46 9 -139 21 -13 2 -42 6 -65 10 -41 7 -72 11 -183
21 -27 2 -75 7 -105 9 -30 3 -103 7 -161 9 -58 1 -111 6 -117 10 -6 3 -13 2
-17 -3 -3 -6 -15 -7 -28 -2 -12 4 -33 5 -47 1 -14 -4 -34 -4 -45 0 -11 4 -29
4 -40 0 -11 -4 -25 -4 -31 1 -6 5 -14 6 -17 2z m97 -1126 l24 5 2 -114 c1 -62
2 -117 2 -123 0 -5 -1 -23 -2 -40 -1 -16 -1 -104 0 -194 1 -171 -4 -190 -41
-171 -9 5 -19 6 -23 3 -9 -10 -56 -10 -56 0 0 4 -6 5 -12 0 -7 -4 -30 -8 -50
-9 -55 -2 -195 -15 -216 -19 -11 -2 -43 -7 -73 -10 -71 -10 -89 -13 -119 -20
-40 -9 -84 -17 -105 -20 -11 -2 -20 -4 -20 -5 0 -2 -5 -3 -55 -13 -14 -3 -56
-15 -95 -27 -38 -12 -76 -22 -82 -22 -7 -1 -13 -5 -13 -10 0 -5 -4 -7 -9 -3
-10 5 -231 -75 -321 -117 -96 -44 -184 -89 -197 -99 -7 -6 -13 -8 -13 -5 0 4
-13 -2 -29 -13 -16 -12 -32 -21 -35 -21 -4 0 -25 -12 -49 -27 -23 -15 -45 -26
-49 -25 -5 1 -8 -2 -8 -8 0 -5 -7 -10 -15 -10 -8 0 -15 -4 -15 -10 0 -5 -7
-10 -15 -10 -8 0 -15 -4 -15 -10 0 -5 -5 -10 -11 -10 -6 0 -21 -8 -34 -17 -12
-10 -33 -25 -45 -33 -13 -8 -36 -26 -51 -38 -16 -13 -29 -20 -29 -16 0 5 -7
-2 -16 -14 -8 -12 -20 -22 -25 -22 -5 0 -21 -10 -34 -22 -13 -13 -38 -34 -56
-48 -130 -103 -389 -364 -458 -462 -8 -12 -22 -29 -30 -38 -9 -9 -23 -27 -31
-40 -8 -12 -20 -28 -26 -34 -17 -18 -149 -217 -176 -266 -14 -25 -39 -67 -55
-95 -28 -48 -133 -261 -133 -271 0 -3 -8 -24 -19 -47 -22 -50 -82 -212 -86
-236 -2 -9 -4 -16 -5 -16 -1 0 -3 -7 -6 -15 -2 -8 -10 -37 -18 -65 -8 -27 -21
-75 -29 -105 -13 -48 -21 -86 -52 -245 -7 -32 -9 -49 -19 -130 -3 -27 -8 -66
-11 -85 -3 -20 -7 -81 -9 -137 -3 -56 -7 -107 -11 -113 -3 -5 -3 -10 2 -10 4
0 8 -13 8 -29 0 -16 -2 -28 -4 -26 -2 3 -12 0 -22 -6 -13 -7 -19 -6 -19 1 0 8
-6 8 -20 0 -14 -8 -20 -8 -20 0 0 8 -6 8 -20 0 -14 -8 -20 -8 -20 0 0 8 -6 8
-20 0 -14 -8 -20 -8 -20 0 0 8 -6 8 -20 0 -14 -8 -20 -8 -20 0 0 8 -6 8 -20 0
-14 -8 -20 -8 -20 0 0 8 -6 8 -20 0 -14 -8 -20 -8 -20 0 0 8 -6 8 -20 0 -14
-8 -20 -8 -20 0 0 8 -6 8 -20 0 -14 -8 -20 -8 -20 0 0 8 -6 8 -20 0 -14 -8
-20 -8 -20 0 0 8 -6 8 -20 0 -14 -8 -20 -8 -20 0 0 8 -6 8 -20 0 -14 -8 -20
-8 -20 0 0 8 -6 8 -20 0 -14 -8 -20 -8 -20 0 0 8 -6 8 -20 0 -14 -8 -20 -8
-20 0 0 7 -6 8 -19 0 -14 -7 -22 -7 -26 0 -5 8 -12 7 -23 -2 -13 -11 -15 -10
-10 9 4 13 2 26 -3 29 -5 3 -6 10 -3 16 4 6 8 56 10 112 4 148 25 381 34 381
1 0 3 18 5 40 2 22 6 51 9 65 4 23 31 155 42 208 3 13 12 49 20 80 26 93 34
126 39 147 4 17 36 118 53 165 3 8 6 17 7 20 3 9 17 45 63 160 67 170 188 415
266 538 14 23 26 46 26 52 0 5 4 10 9 10 5 0 13 9 16 20 3 11 12 26 19 32 6 7
23 31 36 53 25 41 109 158 133 185 7 8 33 42 57 74 25 33 54 69 65 81 11 11
48 53 82 92 127 144 266 275 468 442 46 38 222 165 256 186 10 6 57 35 106 66
48 31 108 67 133 80 25 13 47 26 50 29 13 13 150 79 150 73 0 -5 4 -3 8 2 8
12 125 66 252 119 100 41 320 116 320 110 0 -3 9 0 19 5 22 12 278 78 336 86
22 4 47 8 55 10 14 4 43 9 118 20 17 3 47 7 65 10 31 5 80 10 182 20 28 3 99
7 159 10 59 2 111 7 114 10 4 3 8 2 10 -3 1 -5 13 -7 26 -5z m26 -1917 c22 4
40 5 40 1 0 -3 26 -6 58 -7 56 -1 158 -10 217 -20 17 -3 40 -6 53 -6 12 -1 22
-6 22 -10 0 -5 6 -8 13 -6 6 1 30 -2 52 -7 157 -34 335 -106 498 -200 38 -22
77 -45 87 -51 24 -13 69 -46 85 -61 8 -7 17 -13 20 -13 29 0 303 -270 381
-375 16 -22 32 -41 37 -43 4 -2 7 -8 7 -13 0 -5 15 -30 34 -56 18 -27 46 -70
61 -98 15 -27 31 -54 36 -60 5 -5 9 -17 9 -27 0 -10 4 -18 8 -18 22 0 131
-310 161 -460 30 -149 33 -174 36 -360 3 -184 -13 -351 -44 -458 -5 -18 -10
-36 -11 -40 -5 -43 -86 -281 -101 -296 -5 -6 -9 -18 -9 -28 0 -10 -4 -18 -10
-18 -5 0 -10 -4 -10 -10 0 -18 -34 -90 -43 -90 -4 0 -6 -4 -3 -9 3 -5 -1 -14
-9 -21 -8 -7 -15 -19 -15 -26 0 -8 -4 -14 -10 -14 -5 0 -10 -5 -10 -11 0 -12
-64 -109 -124 -187 -42 -55 -228 -248 -281 -292 -16 -14 -50 -41 -75 -60 -25
-19 -48 -39 -52 -45 -4 -5 -8 -6 -8 -2 0 5 -17 -5 -39 -22 -21 -17 -41 -28
-45 -24 -3 3 -6 2 -6 -3 0 -5 -17 -18 -37 -29 -21 -11 -40 -22 -43 -25 -6 -6
-177 -90 -183 -90 -3 0 -22 -8 -43 -17 -22 -9 -45 -18 -51 -20 -30 -7 -39 -10
-64 -21 -42 -17 -146 -44 -176 -45 -7 0 -13 -4 -13 -9 0 -5 -4 -7 -9 -4 -5 3
-35 1 -67 -5 -33 -6 -70 -12 -84 -13 -14 -1 -30 -4 -35 -6 -6 -3 -40 -5 -77
-5 -38 0 -68 -3 -68 -7 0 -4 -10 -4 -22 0 -26 9 -60 8 -77 -2 -6 -4 -11 -4
-11 1 0 4 -24 8 -53 9 -82 1 -282 25 -282 34 0 1 -11 3 -25 5 -14 2 -40 8 -57
13 -18 6 -33 8 -33 5 0 -3 -7 0 -15 7 -8 7 -15 9 -15 5 0 -4 -7 -2 -15 5 -8 6
-19 9 -24 6 -5 -4 -12 -2 -16 4 -4 6 -11 8 -16 5 -5 -4 -9 -1 -9 5 0 6 -4 9
-8 6 -5 -3 -21 2 -36 10 -16 7 -32 14 -36 14 -5 0 -29 9 -54 20 -26 11 -50 21
-54 22 -4 1 -47 24 -97 51 -138 75 -254 150 -255 166 0 8 -3 11 -6 8 -14 -13
-252 209 -324 301 -14 18 -30 38 -36 45 -31 36 -94 128 -94 137 0 5 -3 10 -7
10 -5 0 -17 18 -27 40 -11 22 -24 40 -29 40 -6 0 -8 3 -4 6 3 3 -8 28 -24 55
-16 28 -29 52 -29 54 0 3 -16 39 -35 81 -19 41 -35 79 -35 84 0 5 -5 21 -12
37 -6 15 -12 33 -14 38 -37 125 -38 128 -57 225 -25 125 -31 187 -31 365 -1
209 14 337 56 490 6 22 13 47 15 55 7 28 9 33 55 155 38 102 145 315 168 335
3 3 18 25 34 50 59 92 133 178 254 298 68 67 129 122 136 122 6 0 17 9 24 20
7 11 19 20 26 20 8 0 16 4 18 8 14 37 408 250 471 255 9 1 17 5 17 9 0 4 3 7
8 6 4 -1 33 7 66 16 32 10 66 20 75 21 9 2 17 4 19 5 1 2 10 3 20 4 9 1 23 5
30 9 7 5 31 11 55 13 75 10 92 12 92 14 0 2 90 10 157 14 32 1 61 6 65 10 4 4
9 3 11 -2 1 -5 20 -6 42 -2z"/>
<path d="M5157 5764 c-3 -3 -38 -7 -79 -9 -40 -2 -80 -6 -88 -8 -144 -37 -226
-83 -320 -177 -128 -128 -185 -265 -184 -440 1 -96 3 -126 17 -186 17 -70 95
-202 165 -277 28 -30 144 -117 156 -117 2 0 21 -8 42 -17 22 -9 42 -18 47 -19
4 -1 8 -2 10 -4 1 -1 9 -3 17 -5 8 -2 29 -6 45 -10 17 -3 50 -8 75 -10 25 -2
45 -4 45 -5 0 -1 8 -3 18 -5 9 -2 17 0 17 3 0 4 19 8 43 8 36 2 80 8 97 14 3
2 9 2 14 1 4 -1 14 4 22 10 8 6 14 9 14 5 0 -4 15 1 33 11 17 9 35 17 38 18 3
0 34 19 70 42 64 41 159 132 159 152 0 6 4 11 8 11 8 0 65 96 61 102 -1 2 4
14 11 28 8 14 15 30 17 35 26 96 31 137 28 223 -4 105 -5 112 -30 187 -31 92
-79 169 -151 241 -64 65 -177 143 -196 136 -5 -1 -8 3 -8 9 0 6 -7 9 -15 6 -8
-4 -17 -2 -20 2 -5 8 -66 25 -127 35 -15 3 -32 7 -36 10 -5 3 -12 3 -15 0z"/>
</g>
</svg>
